<svg width="738" height="657" viewBox="0 0 738 657" fill="none" xmlns="http://www.w3.org/2000/svg">
<path d="M367.515 657C570.488 657 735.03 557.68 735.03 435.161C735.03 312.643 570.488 213.323 367.515 213.323C164.542 213.323 0 312.643 0 435.161C0 557.68 164.542 657 367.515 657Z" fill="#F5F5F5"/>
<path d="M445.645 599.55C472.297 599.55 493.902 586.943 493.902 571.393C493.902 555.843 472.297 543.237 445.645 543.237C418.994 543.237 397.388 555.843 397.388 571.393C397.388 586.943 418.994 599.55 445.645 599.55Z" fill="#E0E0E0"/>
<path d="M64.2956 535.558L89.3072 550.141C90.3562 550.679 91.5157 550.959 92.6916 550.959C93.8676 550.959 95.027 550.679 96.076 550.141L387.759 379.891C388.167 379.751 388.522 379.486 388.773 379.131C389.024 378.777 389.159 378.352 389.159 377.916C389.159 377.481 389.024 377.056 388.773 376.701C388.522 376.347 388.167 376.081 387.759 375.941L362.747 361.373C361.698 360.836 360.539 360.556 359.363 360.556C358.187 360.556 357.027 360.836 355.978 361.373L64.2956 531.576C63.8758 531.708 63.5088 531.973 63.2482 532.331C62.9877 532.689 62.8472 533.122 62.8472 533.567C62.8472 534.011 62.9877 534.444 63.2482 534.802C63.5088 535.161 63.8758 535.425 64.2956 535.558Z" fill="#E0E0E0"/>
<path d="M83.6167 480.635C83.6167 480.635 91.214 450.235 80.1307 427.909C69.0475 405.583 49.4133 404.414 41.8786 406.168C34.3438 407.921 27.4812 416.738 37.2983 426.629C47.1154 436.52 68.2189 456.65 69.235 470.302L83.6167 480.635Z" fill="#1A8CF7"/>
<path opacity="0.15" d="M83.6167 480.635C83.6167 480.635 91.214 450.235 80.1307 427.909C69.0475 405.583 49.4133 404.414 41.8786 406.168C34.3438 407.921 27.4812 416.738 37.2983 426.629C47.1154 436.52 68.2189 456.65 69.235 470.302L83.6167 480.635Z" fill="black"/>
<path d="M48.1006 411.303C57.48 416.754 81.2098 434.719 80.2562 475.484" stroke="white" stroke-miterlimit="10" stroke-linecap="round"/>
<path d="M82.1006 471.755C83.6639 463.855 78.2082 456.318 65.1396 454.217C52.071 452.115 54.0251 452.416 40.128 443.362C26.2309 434.308 13.6312 437.042 10.5673 442.572C7.23763 448.655 18.6961 455.607 26.5591 462.876C34.4222 470.144 39.065 477.633 34.0001 485.296C29.7325 491.869 28.904 498.363 39.0181 504.715C48.0223 510.356 60.3249 508.175 61.2315 518.936C61.7318 525.098 68.907 534.057 78.9742 531.892C108.566 516.597 82.1006 471.755 82.1006 471.755Z" fill="#1A8CF7"/>
<path d="M22.8228 443.109C38.3143 449.635 77.739 475.816 86.493 520.531" stroke="white" stroke-miterlimit="10" stroke-linecap="round"/>
<path d="M44.7085 490.147C44.7085 490.147 59.1684 485.407 73.8783 488.567" stroke="white" stroke-miterlimit="10" stroke-linecap="round"/>
<path d="M443.738 80.0619L475.487 61.5438V180.047C475.487 185.609 481.834 191.108 481.834 191.108L450.085 209.626C450.085 209.626 443.738 204.08 443.738 198.565V80.0619Z" fill="#37474F"/>
<path d="M405.142 79.7459L418.523 96.9842V144.765L404.063 182.828L450.147 209.689C446.146 206.039 444.129 202.326 443.801 198.629V102.246L405.142 79.7459Z" fill="#455A64"/>
<path d="M404.001 182.828V190.239L450.085 217.131V209.721L404.001 182.828Z" fill="#1A8CF7"/>
<path d="M450.084 217.131L481.834 198.613V191.202L450.084 209.721V217.131Z" fill="#1A8CF7"/>
<path opacity="0.1" d="M450.084 217.131L481.834 198.613V191.202L450.084 209.721V217.131Z" fill="black"/>
<path d="M442.284 2.11822C436.891 -1.15247 429.371 -0.741662 421.071 4.09328L420.774 4.28289C404.36 13.858 391.072 37.1478 391.072 56.3138V56.6614C391.072 66.5841 394.652 73.4415 400.373 76.4278L424.4 90.6482L464.497 15.2642L442.284 2.11822Z" fill="#F0F0F0"/>
<path d="M400.358 76.4278L424.385 90.6482L437.673 65.6677L393.824 40.0709C392.069 45.2789 391.135 50.7335 391.057 56.2348V56.5824C391.057 66.5841 394.637 73.4415 400.358 76.4278Z" fill="#E0E0E0"/>
<path d="M494.168 20.5574C488.071 17.018 479.864 17.1602 470.719 21.6634C469.766 22.1216 468.797 22.643 467.812 23.2434C466.827 23.8438 465.53 24.6339 464.404 25.4239C462.511 26.727 460.694 28.1409 458.964 29.6584C455.649 32.5443 452.59 35.7164 449.819 39.1387C442.138 48.6486 436.448 59.636 433.093 71.4348C431.511 76.9843 430.68 82.7246 430.623 88.4993C430.623 100.207 434.593 108.534 441.049 112.579L418.101 99.2121C413.849 96.426 410.373 92.5867 408.004 88.0594C405.634 83.532 404.45 78.4672 404.564 73.3467C404.612 67.8399 405.374 62.3632 406.83 57.0564C410.148 44.9435 415.93 33.6637 423.807 23.9387C426.573 20.5127 429.633 17.3403 432.952 14.4584C434.678 12.936 436.495 11.5218 438.392 10.2238C439.517 9.43382 440.659 8.6438 441.8 8.04338C442.941 7.44296 443.754 6.96895 444.739 6.46333C448.815 4.51661 453.28 3.54398 457.788 3.6207C462.296 3.69741 466.726 4.82142 470.735 6.90575L471.376 7.26916L472.173 7.82218L494.168 20.5574Z" fill="#1A8CF7"/>
<path opacity="0.1" d="M418.039 99.2121C413.787 96.426 410.311 92.5867 407.941 88.0594C405.571 83.532 404.387 78.4672 404.501 73.3467C404.55 67.8399 405.312 62.3632 406.768 57.0564L433.093 71.4349C431.511 76.9843 430.68 82.7246 430.623 88.4993C430.623 100.207 434.593 108.534 441.049 112.579L418.039 99.2121Z" fill="black"/>
<path d="M505.11 44.9849C505.11 69.0174 488.431 98.2325 467.843 110.241C457.494 116.292 448.115 116.83 441.362 112.8L440.987 112.579C434.531 108.534 430.56 100.208 430.56 88.4994C430.56 64.4669 447.24 35.2518 467.827 23.2276C478.098 17.2393 487.415 16.6547 494.152 20.5732C500.89 24.4917 505.11 32.9449 505.11 44.9849Z" fill="#1A8CF7"/>
<path opacity="0.2" d="M505.11 44.9849C505.11 69.0174 488.431 98.2325 467.843 110.241C457.494 116.292 448.115 116.83 441.362 112.8L440.987 112.579C434.531 108.534 430.56 100.208 430.56 88.4994C430.56 64.4669 447.24 35.2518 467.827 23.2276C478.098 17.2393 487.415 16.6547 494.152 20.5732C500.89 24.4917 505.11 32.9449 505.11 44.9849Z" fill="black"/>
<path d="M619.398 38.7753C619.398 38.7753 581.802 58.2731 549.678 114.507C543.905 124.597 538.813 135.071 534.436 145.855C518.32 185.846 519.648 213.402 519.648 213.402C508.44 185.656 494.512 156.931 471.266 134.937C462.163 126.382 452.619 118.318 442.675 110.778C436.531 107.16 432.936 99.3227 432.936 88.5152C433.059 80.951 434.481 73.4659 437.141 66.3945C438.863 61.6114 440.997 56.9904 443.519 52.5849C450.053 41.1454 459.073 31.1595 469.015 25.3607C478.27 19.957 486.789 19.1827 492.948 22.7694C504.384 27.6958 516.067 32.0152 527.949 35.71C558.448 45.0007 590.025 42.8202 619.398 38.7753Z" fill="#F0F0F0"/>
<path d="M534.436 145.855C518.32 185.846 519.648 213.402 519.648 213.402C508.44 185.656 494.512 156.931 471.266 134.937C462.163 126.382 452.619 118.318 442.675 110.778C436.531 107.16 432.936 99.3227 432.936 88.5152C433.059 80.951 434.481 73.466 437.141 66.3945C465.654 80.773 511.77 107.365 534.436 145.855Z" fill="#E0E0E0"/>
<path d="M690.243 93.0025C690.243 118.062 682.615 145.492 669.921 170.82C653.632 203.258 629.059 232.22 601.546 248.242C552.539 276.872 512.817 253.693 512.817 196.527C512.955 182.812 514.927 169.18 518.679 155.999C528.584 121.201 547.077 89.5192 572.423 63.9296C575.893 60.4851 579.457 57.246 583.115 54.2124C584.678 52.9483 586.242 51.7159 587.727 50.5308C589.936 48.8349 592.161 47.2286 594.402 45.7117C596.747 44.1317 599.091 42.6306 601.499 41.2402C650.522 12.6571 690.243 35.8206 690.243 93.0025Z" fill="#1A8CF7"/>
<path opacity="0.1" d="M669.906 170.836C653.617 203.274 629.043 232.236 601.53 248.258C552.539 276.872 512.817 253.693 512.817 196.527C512.955 182.812 514.927 169.18 518.679 155.999C521.993 163.394 533.905 173.948 539.235 166.554C535.953 178.253 534.224 190.34 534.092 202.5C534.092 218.932 537.719 232.189 544.566 240.863C550.413 248.258 558.448 252.018 568.437 251.924C578.144 251.924 589.431 248.321 601.077 241.543C624.525 227.891 645.988 203.353 661.245 175.56C661.324 175.639 664.325 178.246 669.906 170.836Z" fill="black"/>
<path d="M684.178 96.1942C684.178 121.475 675.409 149.916 661.277 175.639C646.02 203.432 624.51 227.97 601.108 241.622C589.462 248.4 578.176 252.018 568.468 252.003C558.479 252.003 550.444 248.258 544.598 240.942C537.751 232.268 534.124 219.011 534.124 202.579C534.255 190.419 535.985 178.331 539.267 166.633C540.518 161.987 541.987 157.326 543.66 152.681C546.622 144.458 550.115 136.44 554.118 128.68C554.941 127.068 555.785 125.488 556.65 123.94C558.073 121.301 559.558 118.678 561.105 116.04C566.306 107.315 572.154 99.0009 578.598 91.1696C578.598 91.1696 578.754 90.9958 578.817 90.901C582.967 85.8725 587.387 81.0778 592.057 76.5384C595.361 73.3783 598.732 70.392 602.171 67.5796C603.61 66.4103 605.063 65.2885 606.533 64.1983C608.294 62.9026 610.076 61.6544 611.879 60.4535C613.63 59.3001 615.396 58.2099 617.163 57.1671C628.84 50.3413 640.127 46.7703 649.834 46.7545C671.344 46.7071 684.178 65.2253 684.178 96.1942Z" fill="#1A8CF7"/>
<path opacity="0.3" d="M684.178 96.1942C684.178 121.475 675.409 149.916 661.277 175.639C646.02 203.432 624.51 227.97 601.108 241.622C589.462 248.4 578.176 252.018 568.468 252.003C558.479 252.003 550.444 248.258 544.598 240.942C537.751 232.268 534.124 219.011 534.124 202.579C534.255 190.419 535.985 178.331 539.267 166.633C540.518 161.987 541.987 157.326 543.66 152.681C546.622 144.458 550.115 136.44 554.118 128.68C554.941 127.068 555.785 125.488 556.65 123.94C558.073 121.301 559.558 118.678 561.105 116.04C566.306 107.315 572.154 99.0009 578.598 91.1696C578.598 91.1696 578.754 90.9958 578.817 90.901C582.967 85.8725 587.387 81.0778 592.057 76.5384C595.361 73.3783 598.732 70.392 602.171 67.5796C603.61 66.4103 605.063 65.2885 606.533 64.1983C608.294 62.9026 610.076 61.6544 611.879 60.4535C613.63 59.3001 615.396 58.2099 617.163 57.1671C628.84 50.3413 640.127 46.7703 649.834 46.7545C671.344 46.7071 684.178 65.2253 684.178 96.1942Z" fill="black"/>
<path d="M608.799 110.241L577.675 168.987C568.937 165.669 554.133 160.36 542.081 157.247C542.581 155.667 543.112 154.087 543.644 152.618C546.606 144.394 550.099 136.377 554.102 128.617C554.925 127.005 555.769 125.425 556.634 123.877C558.057 121.238 559.542 118.615 561.089 115.976C566.29 107.251 572.138 98.9377 578.582 91.1064C578.582 91.1064 578.738 90.9326 578.801 90.8378C579.739 89.716 580.677 88.5942 581.63 87.5039C590.014 95.8683 599.105 103.476 608.799 110.241Z" fill="#E0E0E0"/>
<path d="M580.27 168.829C573.236 168.829 569.031 163.078 569.031 153.455V153.186C569.031 138.065 579.583 119.61 592.479 112.105L592.745 111.963C595.69 110.066 599.074 108.976 602.562 108.803C609.581 108.803 613.786 114.554 613.786 124.161V124.461C613.786 139.582 603.25 158.037 590.338 165.542L590.087 165.685C587.138 167.573 583.757 168.661 580.27 168.845V168.829Z" fill="#F5F5F5"/>
<path d="M375.003 124.588C373.871 124.072 372.625 123.863 371.389 123.982C370.153 124.101 368.968 124.544 367.953 125.267L99.0778 282.134C95.8802 284.253 93.2962 287.192 91.5899 290.65L78.8965 283.24C80.6313 279.789 83.2424 276.866 86.4625 274.771L355.244 117.857C358.058 116.277 360.606 116.15 362.544 117.335L375.003 124.588Z" fill="#455A64"/>
<path d="M79.287 534.72C76.9109 533.377 75.4102 530.201 75.4102 525.682V296.054C75.4102 295.533 75.4102 295.011 75.4102 294.474C75.4102 293.937 75.4102 293.747 75.5196 293.384C75.629 293.021 75.5977 292.689 75.6603 292.341C75.6935 292.091 75.7405 291.843 75.801 291.599C75.9629 290.717 76.1769 289.847 76.4419 288.991C76.5357 288.612 76.6607 288.233 76.7858 287.854C76.9109 287.475 77.161 286.827 77.3486 286.274C77.3486 286.274 77.3486 286.163 77.4267 286.116C77.6299 285.61 77.8332 285.12 78.0676 284.646C78.3021 284.172 78.5679 283.619 78.8336 283.066L91.5896 290.65C91.3082 291.172 91.0424 291.709 90.7767 292.231C90.5109 292.752 90.3859 293.115 90.2139 293.558C90.2075 293.626 90.2075 293.695 90.2139 293.763C89.9951 294.269 89.8075 294.79 89.6355 295.343C89.4636 295.896 89.276 296.433 89.1353 296.923C89.0143 297.328 88.9151 297.74 88.8383 298.156C88.4193 299.894 88.2042 301.676 88.1974 303.465V533.077C88.1974 537.643 89.7606 540.851 92.1367 542.178L79.287 534.72Z" fill="#263238"/>
<path d="M367.953 125.267L99.0779 282.118C92.9813 285.689 88.0415 295.233 88.0415 303.449V533.077C88.0415 541.293 92.9813 545.069 99.0779 541.514L367.953 384.663C374.05 381.108 378.99 371.549 378.99 363.333V133.704C378.99 125.488 374.05 121.712 367.953 125.267Z" fill="#37474F"/>
<path d="M353.149 382.609L113.975 522.19C110.849 524.023 108.238 522.064 108.238 517.814V295.233C108.238 290.966 110.802 286.021 113.975 284.172L353.149 144.607C356.276 142.758 358.871 144.717 358.871 148.968V371.549C358.871 375.815 356.307 380.713 353.149 382.609Z" fill="#1A8CF7"/>
<path opacity="0.1" d="M353.149 382.609L113.975 522.19C110.849 524.023 108.238 522.064 108.238 517.814V295.233C108.238 290.966 110.802 286.021 113.975 284.172L353.149 144.607C356.276 142.758 358.871 144.717 358.871 148.968V371.549C358.871 375.815 356.307 380.713 353.149 382.609Z" fill="black"/>
<path d="M101.876 418.903C101.854 420.299 101.509 421.671 100.869 422.909C100.228 424.146 99.3095 425.215 98.1868 426.029C96.139 427.23 94.4819 426.029 94.4819 423.216C94.5005 421.815 94.8457 420.439 95.4894 419.198C96.1331 417.957 97.0573 416.887 98.1868 416.075C100.219 414.874 101.876 416.154 101.876 418.903Z" fill="#E0E0E0"/>
<path d="M98.1861 382.088C97.5041 382.583 96.9456 383.232 96.5549 383.984C96.1642 384.735 95.952 385.568 95.9351 386.417V406.231C95.9351 407.906 96.9512 408.664 98.1861 407.937C98.8667 407.445 99.4235 406.799 99.8118 406.049C100.2 405.3 100.409 404.469 100.422 403.624V383.873C100.422 382.135 99.4211 381.377 98.1861 382.088Z" fill="#E0E0E0"/>
<path d="M335.766 173.616L145.255 284.788V503.846L335.766 392.753V173.616Z" fill="#FAFAFA"/>
<path d="M335.766 173.616L329.404 169.919L138.909 281.075L145.255 284.788L335.766 173.616Z" fill="white"/>
<path d="M138.909 281.075L145.255 284.789V503.846L138.909 507.543V281.075Z" fill="#E0E0E0"/>
<path d="M168.344 316.295C168.445 317.075 168.482 317.862 168.454 318.649C168.482 319.477 168.445 320.307 168.344 321.13L157.246 327.608C157.145 326.827 157.108 326.04 157.136 325.253C157.117 324.425 157.154 323.596 157.246 322.773L160.685 320.766V296.354L157.824 297.934C157.722 297.16 157.686 296.377 157.714 295.596C157.696 294.768 157.732 293.939 157.824 293.115L167.422 287.506L176.551 305.06V287.08L173.691 288.754C173.59 287.974 173.553 287.187 173.581 286.4C173.562 285.577 173.598 284.753 173.691 283.935L184.633 277.615C184.734 278.395 184.771 279.183 184.743 279.969C184.771 280.798 184.735 281.627 184.633 282.45L181.413 284.33V313.577L176.082 316.737L165.546 296.718V318.048L168.344 316.295Z" fill="#455A64"/>
<path d="M206.425 264.832V273.27C205.86 273.696 205.27 274.086 204.658 274.439C204.074 274.789 203.469 275.1 202.845 275.371V271.69L194.2 276.714V285.61L198.327 283.193V279.669C198.893 279.232 199.488 278.836 200.109 278.484C200.645 278.129 201.223 277.842 201.829 277.631V289.544C201.303 289.997 200.726 290.384 200.109 290.698C199.544 291.054 198.948 291.355 198.327 291.598V287.933L194.2 290.334V301.142L203.189 295.896V291.361C203.772 290.917 204.383 290.511 205.018 290.145C205.588 289.818 206.178 289.528 206.784 289.276V298.63L186.181 310.654C186.097 309.872 186.06 309.086 186.071 308.3C186.06 307.471 186.096 306.643 186.181 305.819L189.401 303.954V279.59L186.54 281.265C186.449 280.484 186.412 279.697 186.431 278.911C186.431 277.504 186.54 276.43 186.54 276.43L206.425 264.832Z" fill="#455A64"/>
<path d="M223.323 261.246L228.294 258.339L232.78 278.215L232.999 278.01C232.999 278.01 234.969 261.704 235.688 252.492L232.843 254.309C232.843 254.309 232.843 253.488 232.843 251.845C232.843 250.201 232.843 249.49 232.843 249.49L242.597 243.802C242.687 244.552 242.724 245.307 242.707 246.062C242.725 246.916 242.689 247.771 242.597 248.621L240.081 250.091C239.189 260.503 236.641 281.344 236.641 281.344L229.341 285.61L225.652 269.178L221.963 289.924L214.647 294.174C214.647 294.174 211.927 276.793 211.255 266.918L208.738 268.388C208.738 268.388 208.738 267.55 208.738 265.907C208.738 264.264 208.738 263.553 208.738 263.553L218.883 257.643C218.973 258.388 219.009 259.137 218.993 259.887C219.01 260.747 218.974 261.607 218.883 262.462L216.007 264.137C216.523 272.828 218.633 286.558 218.633 286.558L218.883 286.4L223.323 261.246Z" fill="#455A64"/>
<path d="M260.168 242.443C259.572 242.91 258.94 243.328 258.277 243.691C257.626 244.099 256.94 244.448 256.229 244.734V241.321C256.229 241.321 254.978 240.737 252.571 242.143C251.372 242.892 250.366 243.916 249.632 245.132C248.899 246.349 248.46 247.723 248.35 249.143C248.35 250.833 248.741 252.398 250.351 252.129L255.041 251.418C257.558 251.07 261.294 251.307 261.294 257.738C261.294 264.169 258.027 269.494 251.915 273.017C246.146 276.398 243.536 273.807 243.536 273.807V267.345C244.143 266.894 244.775 266.478 245.427 266.097C246.083 265.698 246.767 265.349 247.475 265.054V268.672C247.475 268.672 248.804 269.636 251.915 267.819C253.242 267.127 254.362 266.087 255.156 264.809C255.951 263.53 256.392 262.06 256.432 260.551C256.432 258.086 254.869 257.296 253.306 257.533L248.178 258.307C244.63 258.828 243.489 256.111 243.489 251.908C243.489 246.22 247.6 239.805 252.509 236.945C253.642 236.255 254.92 235.844 256.24 235.745C257.56 235.646 258.884 235.862 260.106 236.376L260.168 242.443Z" fill="#455A64"/>
<path d="M320.868 197.254L270.063 226.911V261.783L320.868 232.126V197.254Z" fill="#E0E0E0"/>
<path d="M320.868 252.429L157.354 347.848V338.826L320.868 243.407V252.429Z" fill="#1A8CF7"/>
<path d="M209.207 411.398L157.354 441.656V359.13L209.207 328.872V411.398Z" fill="#455A64"/>
<path d="M200.484 347.106L166.093 367.188C165.452 367.551 164.937 367.188 164.937 366.319C164.945 365.887 165.054 365.463 165.255 365.081C165.456 364.699 165.743 364.371 166.093 364.123L200.484 344.056C201.11 343.677 201.625 344.056 201.625 344.925C201.616 345.353 201.509 345.773 201.31 346.152C201.112 346.53 200.829 346.857 200.484 347.106Z" fill="white"/>
<path d="M200.484 361.911L166.093 381.977C165.452 382.341 164.937 381.977 164.937 381.108C164.945 380.674 165.054 380.247 165.255 379.863C165.456 379.479 165.743 379.148 166.093 378.896L200.484 358.829C201.11 358.466 201.625 358.829 201.625 359.698C201.619 360.132 201.512 360.557 201.314 360.941C201.116 361.325 200.832 361.657 200.484 361.911Z" fill="white"/>
<path d="M200.484 376.7L166.093 396.766C165.452 397.146 164.937 396.766 164.937 395.897C164.942 395.465 165.05 395.04 165.252 394.658C165.453 394.276 165.741 393.948 166.093 393.701L200.484 373.619C201.11 373.255 201.625 373.619 201.625 374.503C201.618 374.934 201.51 375.357 201.312 375.738C201.114 376.12 200.831 376.449 200.484 376.7Z" fill="white"/>
<path d="M200.484 391.489L166.093 411.571C165.452 411.935 164.937 411.571 164.937 410.702C164.942 410.267 165.05 409.84 165.252 409.456C165.453 409.071 165.741 408.74 166.093 408.49L200.484 388.424C201.11 388.044 201.625 388.424 201.625 389.293C201.619 389.724 201.512 390.147 201.314 390.528C201.116 390.91 200.832 391.239 200.484 391.489Z" fill="white"/>
<path d="M200.484 406.294L166.093 426.361C165.452 426.724 164.937 426.361 164.937 425.492C164.945 425.057 165.054 424.631 165.255 424.247C165.456 423.862 165.743 423.531 166.093 423.28L200.484 403.213C201.11 402.85 201.625 403.213 201.625 404.082C201.619 404.515 201.512 404.941 201.314 405.325C201.116 405.709 200.832 406.041 200.484 406.294Z" fill="white"/>
<path d="M200.484 354.168L166.093 374.235C165.452 374.598 164.937 374.235 164.937 373.366C164.942 372.931 165.05 372.504 165.252 372.119C165.453 371.735 165.741 371.404 166.093 371.154L200.484 351.087C201.11 350.708 201.625 351.087 201.625 351.956C201.618 352.389 201.51 352.814 201.312 353.198C201.114 353.582 200.831 353.914 200.484 354.168Z" fill="white"/>
<path d="M200.484 368.958L166.093 389.024C165.452 389.403 164.937 389.024 164.937 388.155C164.945 387.721 165.054 387.294 165.255 386.91C165.456 386.526 165.743 386.195 166.093 385.943L200.484 365.876C201.11 365.513 201.625 365.876 201.625 366.746C201.619 367.179 201.512 367.604 201.314 367.988C201.116 368.372 200.832 368.704 200.484 368.958Z" fill="white"/>
<path d="M200.484 383.747L166.093 403.829C165.452 404.193 164.937 403.829 164.937 402.944C164.942 402.512 165.05 402.087 165.252 401.705C165.453 401.323 165.741 400.995 166.093 400.748L200.484 380.666C201.11 380.302 201.625 380.666 201.625 381.551C201.618 381.981 201.51 382.404 201.312 382.785C201.114 383.167 200.831 383.496 200.484 383.747Z" fill="white"/>
<path d="M200.484 398.552L166.093 418.618C165.452 418.982 164.937 418.618 164.937 417.749C164.942 417.314 165.05 416.887 165.252 416.503C165.453 416.118 165.741 415.787 166.093 415.537L200.484 395.471C201.11 395.091 201.625 395.471 201.625 396.34C201.618 396.773 201.51 397.198 201.312 397.582C201.114 397.965 200.831 398.298 200.484 398.552Z" fill="white"/>
<path d="M320.869 401.364L220.682 459.842V322.172L320.869 263.711V401.364Z" fill="#E0E0E0"/>
<path d="M227.731 324.511L314.818 273.697C316.038 272.97 317.038 273.554 317.038 274.976V347.232C316.994 348.008 316.77 348.762 316.385 349.435C315.999 350.107 315.463 350.679 314.818 351.103L227.747 401.933C226.512 402.644 225.527 402.059 225.527 400.637V328.382C225.568 327.607 225.789 326.853 226.172 326.181C226.555 325.508 227.089 324.936 227.731 324.511Z" fill="#1A8CF7"/>
<path opacity="0.8" d="M227.731 324.511L314.818 273.697C316.038 272.97 317.038 273.554 317.038 274.976V347.232C316.994 348.008 316.77 348.762 316.385 349.435C315.999 350.107 315.463 350.679 314.818 351.103L227.747 401.933C226.512 402.644 225.527 402.059 225.527 400.637V328.382C225.568 327.607 225.789 326.853 226.172 326.181C226.555 325.508 227.089 324.936 227.731 324.511Z" fill="white"/>
<path d="M292.746 315.378L278.192 341.402L288.416 354.8L254.634 325.411L225.527 389.135V400.669C225.527 402.091 226.512 402.676 227.747 401.965L314.818 351.135C315.463 350.71 315.999 350.139 316.385 349.466C316.77 348.794 316.994 348.039 317.038 347.263V337.862L292.746 315.378Z" fill="#1A8CF7"/>
<path d="M302.797 291.519C305.204 290.113 307.158 291.251 307.158 294.063C307.077 295.595 306.639 297.085 305.881 298.414C305.124 299.742 304.067 300.872 302.797 301.711C300.39 303.117 298.436 301.979 298.436 299.167C298.517 297.636 298.955 296.145 299.713 294.817C300.47 293.488 301.527 292.358 302.797 291.519Z" fill="#1A8CF7"/>
<path d="M243.395 405.393L316.71 362.606V392.247L243.395 435.035V405.393Z" fill="#F0F0F0"/>
<path d="M236.72 438.922L157.354 485.233V455.607L236.72 409.28V438.922Z" fill="#1A8CF7"/>
<path d="M439.924 286.843H441.253C447.224 286.847 452.95 289.247 457.171 293.517C461.392 297.786 463.763 303.575 463.763 309.611V335.413H437.048C431.847 335.396 426.865 333.297 423.194 329.574C419.522 325.851 417.46 320.809 417.46 315.552V309.611C417.46 303.583 419.825 297.802 424.036 293.534C428.247 289.265 433.961 286.859 439.924 286.843Z" fill="#263238"/>
<path d="M420.383 292.847C420.775 292.924 421.147 293.079 421.479 293.302C421.811 293.525 422.096 293.812 422.318 294.147C422.54 294.481 422.695 294.857 422.774 295.252C422.852 295.647 422.853 296.054 422.775 296.449L416.819 295.248C416.978 294.453 417.442 293.753 418.11 293.303C418.778 292.853 419.596 292.689 420.383 292.847Z" fill="#263238"/>
<path d="M424.276 291.535C424.502 292.311 424.425 293.144 424.062 293.864C423.698 294.584 423.075 295.136 422.322 295.406L420.446 289.576C420.825 289.45 421.224 289.401 421.622 289.431C422.019 289.462 422.407 289.571 422.763 289.753C423.118 289.935 423.435 290.186 423.695 290.492C423.954 290.798 424.152 291.152 424.276 291.535Z" fill="#263238"/>
<path d="M464.451 563.24C467.149 566.104 470.106 568.707 473.283 571.014C473.792 571.332 474.216 571.772 474.518 572.294C474.94 573.179 475.581 575.343 471.626 576.734C469.627 577.438 467.501 577.696 465.394 577.492C463.286 577.287 461.248 576.624 459.417 575.549C456.182 573.495 456.025 569.228 452.961 566.779C450.695 564.978 447.85 564.52 446.021 562.15C444.739 560.57 445.083 558.326 445.739 555.608C446.396 552.891 446.802 550.426 447.771 550.647L447.615 552.006C448.819 553.965 455.087 554.534 457.87 553.191C459.886 556.656 462.083 560.011 464.451 563.24Z" fill="#263238"/>
<path d="M467.187 566.005C466.249 565.136 465.326 564.235 464.451 563.256C462.593 560.832 460.886 558.293 459.339 555.656C458.266 554.055 457.759 552.134 457.901 550.205L458.683 542.921L448.772 542.21L447.615 552.037C447.381 554.265 449.178 556.24 452.43 559.053C455.681 561.865 459.746 568.423 462.669 570.113C465.592 571.804 467.687 571.693 468.922 570.856C470.157 570.018 470.329 569.244 467.187 566.005Z" fill="#EDB9BB"/>
<path d="M426.73 564.125V562.624C427.324 564.394 430.044 571.994 434.187 575.817C437.47 578.835 442.003 582.343 443.097 585.724C444.192 589.105 436.844 590.464 433.718 589.864C429.62 589.17 425.863 587.132 423.025 584.065C421.259 581.869 420.133 579.325 418.867 577.54C417.601 575.754 414.693 573.89 414.006 571.883C413.8 570.017 414.008 568.127 414.615 566.353C415.1 564.504 415.616 562.45 416.178 562.624V563.777C417.698 564.991 419.589 565.628 421.525 565.579C423.041 565.579 426.746 565.31 426.73 564.125Z" fill="#263238"/>
<path d="M437.158 578.472C436.142 577.555 435.11 576.655 434.188 575.801C431.412 572.84 429.249 569.348 427.825 565.531C427.103 563.773 426.731 561.889 426.731 559.985V553.981H416.304V563.761V563.998C416.804 566.195 421.588 572.009 424.308 575.817C426.507 579.072 429.869 581.338 433.687 582.137C437.783 582.738 439.706 581.474 437.158 578.472Z" fill="#EDB9BB"/>
<path d="M418.383 400.4C410.301 418.239 418.68 481.078 418.68 481.078C418.43 483.969 415.162 489.673 413.99 502.408C412.536 517.466 416.241 555.261 416.241 555.261C417.83 556.194 419.621 556.72 421.457 556.794C423.293 556.869 425.119 556.489 426.777 555.687C426.777 555.687 436.704 498.806 438.58 483.795C440.143 470.728 443.269 440.028 443.269 440.028L451.398 484.08C449.91 488.2 448.862 492.469 448.272 496.815C447.427 505.616 448.068 546.349 448.068 546.349C448.068 546.349 451.617 549.083 458.448 548.072C458.448 548.072 470.266 492.312 471.188 481.71C471.736 475.389 464.592 397.778 464.592 397.778L418.383 400.4Z" fill="#37474F"/>
<path d="M443.285 440.028L445.911 425.444C445.911 425.444 457.01 423.122 462.043 418.334C458.568 422.448 454.026 425.502 448.928 427.151L445.973 439.902L450.663 479.75L443.285 440.028Z" fill="#263238"/>
<path d="M398.092 388.882C398.357 387.729 402.422 375.736 404.954 369.068L418.617 375.783L414.099 388.076L400.483 395.976C396.825 394.618 397.842 390.02 398.092 388.882Z" fill="#EDB9BB"/>
<path d="M475.472 366.319L482.334 379.038L471.657 388.297L461.872 372.623L475.472 366.319Z" fill="#EDB9BB"/>
<path d="M449.71 337.957C456.51 337.957 464.013 340.533 466.593 345.857C469.172 351.182 477.379 367.978 477.379 367.978C477.379 367.978 469.969 374.883 460.418 374.298L449.71 337.957Z" fill="#1A8CF7"/>
<path opacity="0.3" d="M449.71 337.957C456.51 337.957 464.013 340.533 466.593 345.857C469.172 351.182 477.379 367.978 477.379 367.978C477.379 367.978 469.969 374.883 460.418 374.298L449.71 337.957Z" fill="black"/>
<path d="M435.61 338.194L429.357 338.431C423.198 339.932 421.541 344.214 418.899 349.744C416.994 354.003 416.815 358.847 418.399 363.238L425.621 384.347C425.621 384.347 422.244 392.595 418.32 400.4C436.438 410.623 459.058 405.251 464.498 397.793C464.733 396.213 464.42 389.087 464.858 380.966C465.327 372.323 466.499 362.543 465.155 357.265C462.794 347.279 458.105 337.957 448.725 337.957L435.61 338.194Z" fill="#1A8CF7"/>
<path d="M429.419 338.431C420.728 337.957 414.615 340.011 409.582 354.374C406.127 364.217 401.766 375.657 401.766 375.657C401.766 375.657 407.174 381.108 417.398 381.061C417.46 381.061 431.061 348.133 429.419 338.431Z" fill="#1A8CF7"/>
<path opacity="0.3" d="M429.419 338.431C420.728 337.957 414.615 340.011 409.582 354.374C406.127 364.217 401.766 375.657 401.766 375.657C401.766 375.657 407.174 381.108 417.398 381.061C417.46 381.061 431.061 348.133 429.419 338.431Z" fill="black"/>
<path d="M456.15 296.307C458.605 297.776 461.622 304.002 461.325 317.053C461.075 328.113 457.526 330.847 455.744 331.637C453.962 332.427 450.538 331.937 447.193 331.384V338.052C447.193 338.052 451.883 343.471 451.523 346.505C451.164 349.539 444.848 350.281 440.581 347.295C437.784 345.261 435.383 342.722 433.499 339.806V323.721C433.147 324.156 432.713 324.517 432.222 324.782C431.731 325.046 431.193 325.21 430.639 325.263C430.085 325.316 429.526 325.257 428.995 325.09C428.463 324.923 427.97 324.651 427.543 324.29C423.87 321.809 423.729 315.694 425.871 313.482C428.012 311.27 432.624 311.981 433.499 315.062C437.879 314.872 442.144 313.585 445.911 311.317C448.667 309.807 451.031 307.661 452.81 305.052C454.589 302.444 455.734 299.447 456.15 296.307Z" fill="#EDB9BB"/>
<path d="M449.569 314.43C449.572 314.703 449.495 314.971 449.348 315.2C449.202 315.429 448.992 315.609 448.744 315.719C448.497 315.828 448.223 315.861 447.957 315.814C447.691 315.767 447.445 315.642 447.248 315.455C447.052 315.267 446.915 315.026 446.854 314.76C446.792 314.494 446.81 314.216 446.904 313.96C446.998 313.704 447.165 313.482 447.383 313.321C447.601 313.16 447.861 313.068 448.131 313.056C448.501 313.047 448.86 313.187 449.13 313.444C449.399 313.701 449.557 314.056 449.569 314.43Z" fill="#263238"/>
<path d="M449.475 323.642L452.601 324.685C452.542 324.9 452.441 325.101 452.304 325.276C452.167 325.451 451.996 325.597 451.802 325.704C451.609 325.812 451.396 325.879 451.176 325.902C450.956 325.925 450.734 325.903 450.522 325.838C450.102 325.678 449.76 325.36 449.565 324.951C449.37 324.543 449.338 324.074 449.475 323.642Z" fill="#BB7679"/>
<path d="M460.387 310.006L457.604 308.031C457.714 307.834 457.865 307.663 458.046 307.531C458.227 307.398 458.435 307.306 458.654 307.261C458.873 307.216 459.1 307.219 459.318 307.27C459.536 307.321 459.74 307.419 459.918 307.557C460.293 307.825 460.552 308.23 460.639 308.686C460.727 309.143 460.636 309.616 460.387 310.006Z" fill="#263238"/>
<path d="M459.995 314.193C459.995 314.465 459.916 314.73 459.768 314.957C459.62 315.183 459.41 315.361 459.163 315.468C458.916 315.576 458.643 315.607 458.379 315.56C458.114 315.512 457.869 315.387 457.674 315.201C457.479 315.014 457.342 314.774 457.281 314.51C457.219 314.245 457.236 313.969 457.328 313.714C457.42 313.458 457.584 313.236 457.8 313.074C458.016 312.913 458.273 312.818 458.542 312.803C458.916 312.794 459.279 312.935 459.551 313.196C459.824 313.456 459.983 313.815 459.995 314.193Z" fill="#263238"/>
<path d="M453.258 312.471L453.477 320.845L457.839 319.486L453.258 312.471Z" fill="#BB7679"/>
<path d="M447.161 331.384C443.644 330.91 436.406 328.809 435.265 325.917C435.727 327.381 436.615 328.669 437.813 329.614C439.97 331.479 447.193 333.596 447.193 333.596L447.161 331.384Z" fill="#BB7679"/>
<path d="M500.202 359.825L453.149 376.178L438.455 437.769L483.522 420.909L500.202 359.825Z" fill="#F5F5F5"/>
<path d="M445.645 420.672L484.476 406.989L481.584 418.334L442.832 432.633L445.645 420.672Z" fill="#E0E0E0"/>
<path d="M470.094 403.497L469.015 410.465L485.023 404.43L487.07 397.24L470.094 403.497Z" fill="#E6E6E6"/>
<path d="M452.664 391.173L470.188 385.074L465.483 411.698L445.911 418.334L452.664 391.173Z" fill="#E0E0E0"/>
<path d="M492.542 376.858L487.821 394.159L470.641 400.59L473.596 384.126L492.542 376.858Z" fill="#E6E6E6"/>
<path d="M495.919 364.454L455.384 378.438L453.118 387.887L493.558 373.16L495.919 364.454Z" fill="#E0E0E0"/>
<path opacity="0.15" d="M481.553 398.22C481.928 399.247 484.116 402.075 488.759 401.854L489.338 399.784L481.553 398.22Z" fill="black"/>
<path opacity="0.15" d="M466.749 400.258C466.577 401.601 463.857 404.066 459.261 405.615C454.04 407.384 445.911 406.515 445.911 406.515L446.521 403.892L466.749 400.258Z" fill="black"/>
<path d="M400.483 395.976L414.787 386.227C414.787 386.227 436.266 394.222 439.439 394.475C441.122 394.524 442.78 394.057 444.195 393.134C445.609 392.212 446.715 390.878 447.365 389.309C448.568 386.148 450.71 386.543 450.71 386.543C450.71 386.543 449.772 390.541 449.459 391.821C449.147 393.101 456.775 394.143 461.012 392.706C465.248 391.268 471.344 393.353 467.561 399.168C463.778 404.983 456.4 405.646 451.288 405.662C449.145 405.646 447.005 405.498 444.879 405.22C443.222 405.014 441.581 404.84 439.924 404.714C429.434 403.971 405.251 397.477 400.483 395.976Z" fill="#EDB9BB"/>
<path d="M494.762 379.718C494.762 379.718 493.355 384.869 493.011 386.038C492.667 387.207 488.024 389.498 485.101 390.32C482.178 391.141 478.942 392.105 480.412 396.245C481.693 400.084 486.524 400.985 488.994 400.843C490.646 400.56 492.188 399.819 493.45 398.703C494.711 397.588 495.641 396.141 496.138 394.523C497.842 389.64 496.919 384.426 497.591 381.566C498.264 378.706 496.231 378.011 494.762 379.718Z" fill="#EDB9BB"/>
<path d="M642.752 339.379L708.877 296.576L738 306.04L642.752 339.379Z" fill="#1A8CF7"/>
<path d="M642.752 339.379L699.904 291.203L687.211 276.383L642.752 339.379Z" fill="#1A8CF7"/>
<path d="M699.904 291.203V302.39L642.752 339.379L699.904 291.203Z" fill="#1A8CF7"/>
<path opacity="0.3" d="M699.904 291.203V302.39L642.752 339.379L699.904 291.203Z" fill="black"/>
<path d="M555.806 338.004L604.579 306.435L626.073 313.403L555.806 338.004Z" fill="#1A8CF7"/>
<path d="M555.806 338.004L597.966 302.469L588.603 291.535L555.806 338.004Z" fill="#1A8CF7"/>
<path d="M597.966 302.469V310.717L555.806 338.004L597.966 302.469Z" fill="#1A8CF7"/>
<path opacity="0.3" d="M597.966 302.469V310.717L555.806 338.004L597.966 302.469Z" fill="black"/>
<path d="M708.221 288.107C707.985 288.107 707.755 288.035 707.56 287.901C707.366 287.766 707.215 287.576 707.129 287.354C707.043 287.133 707.025 286.89 707.078 286.658C707.13 286.425 707.251 286.214 707.424 286.053C709.671 283.96 711.713 281.653 713.52 279.164C713.707 278.913 713.983 278.746 714.29 278.699C714.597 278.652 714.91 278.728 715.162 278.911C715.288 279.002 715.395 279.117 715.476 279.25C715.557 279.384 715.611 279.532 715.634 279.687C715.657 279.841 715.65 279.999 715.612 280.151C715.573 280.303 715.505 280.445 715.412 280.57C713.509 283.174 711.369 285.591 709.018 287.791C708.801 287.992 708.516 288.105 708.221 288.107ZM718.57 274.344C718.386 274.34 718.205 274.297 718.038 274.218C717.767 274.073 717.562 273.827 717.469 273.531C717.375 273.236 717.4 272.915 717.538 272.638C718.918 269.886 720.038 267.008 720.883 264.042C720.923 263.892 720.992 263.752 721.086 263.629C721.18 263.506 721.298 263.403 721.432 263.326C721.565 263.25 721.713 263.201 721.866 263.183C722.019 263.165 722.174 263.178 722.321 263.221C722.62 263.309 722.873 263.513 723.025 263.787C723.177 264.062 723.216 264.387 723.134 264.69C722.255 267.806 721.077 270.828 719.617 273.712C719.518 273.906 719.367 274.068 719.182 274.179C718.997 274.291 718.785 274.348 718.57 274.344ZM723.541 257.801H723.4C723.248 257.784 723.1 257.736 722.966 257.66C722.833 257.584 722.715 257.483 722.62 257.361C722.526 257.238 722.456 257.099 722.416 256.949C722.375 256.8 722.364 256.644 722.384 256.49C722.616 254.508 722.731 252.513 722.728 250.517C722.728 249.427 722.728 248.321 722.634 247.247C722.621 247.09 722.64 246.933 722.688 246.785C722.737 246.636 722.814 246.498 722.916 246.38C723.018 246.262 723.143 246.166 723.282 246.098C723.422 246.03 723.573 245.99 723.728 245.983C723.881 245.972 724.035 245.992 724.181 246.042C724.326 246.092 724.46 246.171 724.575 246.274C724.69 246.377 724.784 246.502 724.85 246.642C724.917 246.782 724.955 246.934 724.963 247.089C725.041 248.226 725.073 249.38 725.073 250.517C725.073 252.629 724.952 254.739 724.713 256.837C724.659 257.111 724.512 257.356 724.298 257.532C724.084 257.708 723.816 257.803 723.541 257.801ZM722.728 240.516C722.461 240.515 722.203 240.422 721.995 240.252C721.788 240.083 721.644 239.847 721.587 239.583C720.945 236.551 720.062 233.576 718.945 230.688C718.833 230.394 718.841 230.068 718.967 229.781C719.093 229.493 719.327 229.268 719.617 229.155C719.907 229.042 720.23 229.05 720.514 229.177C720.799 229.305 721.021 229.541 721.133 229.834C722.296 232.841 723.216 235.937 723.885 239.094C723.945 239.399 723.883 239.717 723.714 239.977C723.544 240.237 723.28 240.419 722.978 240.484C722.897 240.51 722.812 240.521 722.728 240.516ZM716.741 224.289C716.53 224.287 716.324 224.23 716.142 224.122C715.961 224.013 715.811 223.858 715.709 223.672C714.242 220.921 712.581 218.281 710.738 215.772C710.551 215.521 710.471 215.205 710.515 214.893C710.559 214.582 710.724 214.302 710.972 214.113C711.221 213.924 711.534 213.843 711.842 213.888C712.149 213.932 712.427 214.099 712.614 214.35C714.516 216.929 716.24 219.637 717.772 222.456C717.913 222.729 717.942 223.047 717.855 223.342C717.767 223.637 717.569 223.886 717.303 224.036C717.141 224.168 716.947 224.255 716.741 224.289ZM706.658 210.274C706.498 210.275 706.341 210.242 706.195 210.177C706.049 210.111 705.919 210.015 705.814 209.894C703.705 207.625 701.465 205.483 699.107 203.479C698.989 203.376 698.893 203.249 698.823 203.108C698.753 202.966 698.712 202.812 698.701 202.655C698.69 202.497 698.71 202.339 698.759 202.189C698.809 202.039 698.888 201.9 698.99 201.781C699.093 201.661 699.218 201.564 699.358 201.493C699.498 201.423 699.65 201.381 699.806 201.37C699.962 201.359 700.119 201.379 700.267 201.429C700.415 201.479 700.553 201.558 700.671 201.662C703.099 203.726 705.401 205.937 707.564 208.283C707.72 208.452 707.823 208.663 707.861 208.89C707.899 209.118 707.871 209.351 707.779 209.563C707.688 209.774 707.538 209.954 707.347 210.08C707.156 210.206 706.933 210.274 706.705 210.274H706.658ZM693.652 199.008C693.416 199.002 693.187 198.925 692.995 198.787C690.682 197.207 688.227 195.626 685.695 194.157L685.117 193.825C684.983 193.747 684.866 193.644 684.772 193.52C684.678 193.397 684.61 193.256 684.57 193.105C684.53 192.955 684.52 192.798 684.54 192.644C684.56 192.489 684.61 192.341 684.687 192.206C684.764 192.071 684.866 191.953 684.988 191.858C685.11 191.763 685.25 191.693 685.399 191.653C685.548 191.613 685.703 191.602 685.855 191.623C686.008 191.643 686.155 191.693 686.289 191.771L686.867 192.103C689.447 193.588 691.963 195.263 694.324 196.843C694.532 196.986 694.689 197.193 694.772 197.434C694.854 197.674 694.858 197.935 694.783 198.178C694.708 198.42 694.557 198.632 694.353 198.782C694.149 198.931 693.903 199.011 693.652 199.008ZM678.942 190.017C678.738 190.021 678.538 189.966 678.363 189.859L670.235 185.119C670.092 185.046 669.966 184.944 669.864 184.819C669.762 184.694 669.686 184.55 669.642 184.395C669.597 184.24 669.584 184.077 669.604 183.916C669.624 183.756 669.676 183.601 669.757 183.462C669.838 183.323 669.947 183.202 670.076 183.106C670.205 183.011 670.352 182.943 670.508 182.908C670.664 182.872 670.826 182.869 670.983 182.899C671.14 182.929 671.29 182.991 671.423 183.081L679.536 187.821C679.76 187.952 679.936 188.154 680.035 188.396C680.133 188.638 680.15 188.906 680.082 189.159C680.015 189.411 679.866 189.634 679.66 189.792C679.453 189.95 679.201 190.035 678.942 190.033V190.017ZM664.06 181.311C663.857 181.311 663.657 181.256 663.481 181.153L655.368 176.413C655.108 176.258 654.917 176.007 654.835 175.712C654.754 175.418 654.788 175.103 654.931 174.833C655.087 174.573 655.335 174.382 655.626 174.3C655.916 174.218 656.226 174.25 656.494 174.391L664.607 179.131C664.831 179.261 665.007 179.463 665.106 179.705C665.205 179.947 665.221 180.216 665.154 180.468C665.086 180.721 664.937 180.944 664.731 181.102C664.524 181.26 664.272 181.345 664.013 181.343L664.06 181.311ZM649.178 172.605C648.973 172.599 648.774 172.539 648.599 172.431L640.486 167.691C640.229 167.533 640.04 167.282 639.959 166.989C639.878 166.695 639.91 166.382 640.049 166.111C640.205 165.851 640.455 165.661 640.746 165.581C641.037 165.502 641.347 165.539 641.612 165.685L649.725 170.425C649.986 170.58 650.177 170.831 650.258 171.126C650.34 171.42 650.306 171.735 650.163 172.005C650.056 172.171 649.91 172.309 649.738 172.405C649.567 172.501 649.374 172.554 649.178 172.558V172.605ZM634.312 163.883C634.103 163.885 633.898 163.83 633.718 163.725L630.888 162.145C630.755 162.067 630.638 161.964 630.544 161.84C630.45 161.717 630.381 161.576 630.341 161.426C630.301 161.275 630.291 161.118 630.311 160.964C630.331 160.809 630.381 160.661 630.458 160.526C630.535 160.391 630.638 160.273 630.76 160.178C630.882 160.083 631.022 160.013 631.17 159.973C631.319 159.933 631.474 159.922 631.627 159.943C631.78 159.963 631.927 160.013 632.061 160.091L634.89 161.671C635.148 161.829 635.336 162.081 635.417 162.374C635.499 162.667 635.467 162.981 635.328 163.251C635.224 163.43 635.075 163.578 634.897 163.681C634.719 163.783 634.517 163.837 634.312 163.836V163.883Z" fill="#E6E6E6"/>
<path d="M607.892 302.611C607.654 302.609 607.421 302.533 607.227 302.394C607.032 302.254 606.884 302.058 606.802 301.831C606.72 301.605 606.709 301.358 606.77 301.125C606.831 300.892 606.961 300.683 607.142 300.526L612.973 295.659C613.091 295.555 613.228 295.476 613.376 295.426C613.525 295.376 613.681 295.356 613.837 295.367C613.993 295.378 614.146 295.42 614.286 295.49C614.426 295.561 614.551 295.658 614.653 295.778C614.756 295.897 614.834 296.036 614.884 296.186C614.934 296.335 614.954 296.494 614.943 296.652C614.932 296.809 614.89 296.963 614.821 297.105C614.751 297.246 614.654 297.373 614.536 297.476L608.705 302.343C608.48 302.537 608.188 302.633 607.892 302.611ZM619.757 292.72C619.584 292.722 619.413 292.685 619.256 292.611C619.099 292.537 618.96 292.429 618.851 292.294C618.654 292.049 618.561 291.737 618.59 291.424C618.619 291.111 618.769 290.822 619.007 290.619L626.245 284.583C626.486 284.395 626.791 284.309 627.094 284.344C627.397 284.379 627.675 284.532 627.868 284.77C628.061 285.009 628.155 285.314 628.129 285.622C628.103 285.929 627.96 286.214 627.73 286.416L620.508 292.452C620.294 292.624 620.03 292.718 619.757 292.72ZM632.795 281.407C632.477 281.402 632.174 281.271 631.95 281.044C631.731 280.822 631.608 280.52 631.608 280.206C631.608 279.892 631.731 279.591 631.95 279.369C634.148 277.197 636.235 274.913 638.203 272.527C638.408 272.293 638.695 272.147 639.004 272.121C639.312 272.094 639.619 272.189 639.86 272.385C640.096 272.59 640.243 272.88 640.269 273.194C640.295 273.507 640.199 273.818 640.001 274.06C638 276.446 635.827 278.8 633.514 281.075C633.321 281.269 633.066 281.387 632.795 281.407ZM643.956 268.23C643.72 268.224 643.491 268.147 643.299 268.008C643.059 267.833 642.895 267.572 642.839 267.278C642.784 266.984 642.843 266.68 643.002 266.428C644.769 263.896 646.382 261.258 647.833 258.528C647.896 258.377 647.99 258.24 648.108 258.127C648.226 258.014 648.367 257.927 648.52 257.872C648.673 257.817 648.836 257.795 648.998 257.807C649.161 257.819 649.319 257.865 649.462 257.942C649.606 258.019 649.732 258.125 649.833 258.254C649.934 258.383 650.007 258.532 650.048 258.691C650.089 258.851 650.096 259.017 650.07 259.179C650.044 259.341 649.985 259.496 649.896 259.634C648.404 262.466 646.744 265.205 644.925 267.835C644.805 267.972 644.655 268.079 644.487 268.147C644.318 268.216 644.137 268.244 643.956 268.23ZM652.132 252.982C651.992 253.005 651.849 253.005 651.71 252.982C651.56 252.927 651.424 252.841 651.308 252.73C651.192 252.619 651.1 252.486 651.037 252.338C650.975 252.19 650.942 252.031 650.942 251.87C650.942 251.709 650.975 251.55 651.037 251.402C652.159 248.514 653.068 245.546 653.757 242.522C653.783 242.362 653.84 242.209 653.926 242.072C654.012 241.935 654.125 241.818 654.258 241.727C654.39 241.636 654.54 241.573 654.698 241.543C654.855 241.513 655.017 241.516 655.174 241.552C655.33 241.588 655.478 241.656 655.607 241.751C655.737 241.847 655.845 241.968 655.927 242.108C656.008 242.248 656.06 242.403 656.079 242.564C656.099 242.725 656.085 242.888 656.04 243.044C655.331 246.181 654.39 249.26 653.226 252.255C653.136 252.473 652.983 252.658 652.789 252.788C652.594 252.917 652.365 252.985 652.132 252.982ZM656.102 236.139H655.993C655.839 236.127 655.69 236.084 655.553 236.013C655.416 235.942 655.294 235.844 655.195 235.725C655.096 235.606 655.022 235.468 654.976 235.319C654.931 235.17 654.915 235.014 654.93 234.859C655.055 233.279 655.117 231.825 655.117 230.324C655.117 228.823 655.117 227.164 654.914 225.584C654.899 225.429 654.915 225.273 654.96 225.124C655.006 224.976 655.08 224.838 655.179 224.718C655.279 224.599 655.4 224.501 655.537 224.43C655.674 224.359 655.824 224.316 655.977 224.304C656.285 224.282 656.589 224.382 656.826 224.582C657.062 224.783 657.212 225.069 657.243 225.379C657.384 226.959 657.462 228.665 657.462 230.308C657.462 231.952 657.462 233.469 657.259 235.049C657.236 235.344 657.104 235.619 656.89 235.821C656.676 236.022 656.395 236.136 656.102 236.139ZM654.789 218.885C654.527 218.883 654.274 218.793 654.067 218.63C653.861 218.468 653.713 218.24 653.648 217.984C652.922 214.982 651.928 212.052 650.678 209.231C650.611 209.088 650.574 208.933 650.567 208.776C650.561 208.618 650.585 208.461 650.64 208.313C650.694 208.165 650.777 208.03 650.884 207.915C650.991 207.8 651.119 207.708 651.262 207.643C651.404 207.579 651.558 207.544 651.714 207.541C651.87 207.538 652.025 207.566 652.17 207.624C652.315 207.682 652.448 207.769 652.559 207.879C652.67 207.99 652.759 208.121 652.819 208.267C654.121 211.219 655.168 214.28 655.946 217.415C656.017 217.721 655.967 218.043 655.806 218.312C655.646 218.58 655.387 218.775 655.086 218.853L654.789 218.885ZM648.052 202.974C647.854 202.975 647.659 202.927 647.484 202.833C647.309 202.74 647.16 202.603 647.051 202.436C645.412 199.815 643.567 197.332 641.533 195.01C641.326 194.773 641.22 194.463 641.239 194.148C641.258 193.832 641.4 193.537 641.635 193.328C641.869 193.118 642.176 193.011 642.488 193.03C642.8 193.05 643.092 193.193 643.299 193.43C645.406 195.847 647.324 198.425 649.036 201.141C649.154 201.319 649.22 201.525 649.229 201.738C649.238 201.952 649.19 202.163 649.088 202.351C648.987 202.538 648.836 202.693 648.654 202.8C648.471 202.908 648.263 202.962 648.052 202.958V202.974ZM636.89 189.828C636.602 189.828 636.324 189.721 636.109 189.528C633.807 187.466 631.374 185.561 628.824 183.824C628.697 183.735 628.588 183.623 628.504 183.492C628.419 183.361 628.362 183.215 628.333 183.062C628.305 182.908 628.307 182.751 628.339 182.598C628.371 182.446 628.432 182.301 628.519 182.172C628.606 182.044 628.718 181.934 628.847 181.849C628.976 181.764 629.121 181.705 629.273 181.676C629.424 181.648 629.58 181.65 629.731 181.682C629.882 181.714 630.025 181.776 630.153 181.864C632.781 183.665 635.292 185.633 637.672 187.758C637.787 187.862 637.881 187.987 637.948 188.127C638.015 188.268 638.054 188.42 638.062 188.576C638.071 188.731 638.049 188.887 637.998 189.034C637.948 189.181 637.868 189.317 637.766 189.433C637.657 189.559 637.522 189.659 637.371 189.728C637.22 189.796 637.056 189.83 636.89 189.828ZM622.821 179.842C622.606 179.84 622.396 179.78 622.211 179.668L614.176 174.786C614.031 174.716 613.901 174.616 613.795 174.493C613.689 174.37 613.609 174.227 613.561 174.071C613.512 173.916 613.496 173.752 613.513 173.589C613.531 173.427 613.581 173.271 613.66 173.129C613.74 172.987 613.848 172.864 613.977 172.766C614.106 172.668 614.254 172.599 614.411 172.561C614.568 172.524 614.731 172.52 614.89 172.549C615.048 172.579 615.199 172.641 615.333 172.732C615.99 173.111 621.211 176.287 623.415 177.646C623.632 177.779 623.8 177.981 623.894 178.22C623.988 178.458 624.002 178.722 623.935 178.969C623.868 179.217 623.723 179.436 623.522 179.594C623.321 179.751 623.075 179.838 622.821 179.842Z" fill="#E6E6E6"/>
</svg>
